<svg id="Capa_1" enable-background="new 0 0 512 512" height="512" viewBox="0 0 512 512" width="512" xmlns="http://www.w3.org/2000/svg"><g><path d="m442.82 85.72c4.143 0 7.5-3.358 7.5-7.5v-55.72c0-12.407-10.094-22.5-22.5-22.5h-295.799c-38.786 0-70.341 31.554-70.341 70.34v371.32c0 38.786 31.555 70.34 70.34 70.34h295.8c12.406 0 22.5-10.093 22.5-22.5v-374.253c0-4.142-3.357-7.5-7.5-7.5s-7.5 3.358-7.5 7.5v95.833l-239.648-.005c-9.649 0-17.5 7.851-17.5 17.5v77.242c0 4.142 3.358 7.5 7.5 7.5s7.5-3.358 7.5-7.5v-77.242c0-1.378 1.122-2.5 2.5-2.5l35.82.005c1.356.026 2.452 1.133 2.452 2.495v208.493c0 1.378-1.122 2.5-2.5 2.5h-35.772c-1.378 0-2.5-1.122-2.5-2.5v-94.225c0-4.142-3.358-7.5-7.5-7.5s-7.5 3.358-7.5 7.5v28.476h-38.652v-356.319h288.3c4.136 0 7.5 3.365 7.5 7.5v55.72c0 4.142 3.357 7.5 7.5 7.5zm-366.14-15.38c0-27.97 20.862-51.144 47.84-54.818v356.202c-19.372 2.063-36.407 12.029-47.84 26.595zm172.264 315.98h178.876c4.136 0 7.5 3.364 7.5 7.5v7.5h-186.376zm186.376-160.24v146.53c-2.347-.833-4.871-1.29-7.5-1.29h-178.876v-142.745c0-.849-.081-1.678-.199-2.495zm-257.148 175.24h-46.151c-22.244 0-40.34 18.097-40.34 40.34s18.096 40.34 40.34 40.34h134.923c4.143 0 7.5-3.358 7.5-7.5s-3.357-7.5-7.5-7.5h-134.923c-13.973 0-25.34-11.367-25.34-25.34s11.367-25.34 25.34-25.34h46.151v20.749c0 9.649 7.851 17.5 17.5 17.5h35.772c9.649 0 17.5-7.851 17.5-17.5v-20.749h186.376v11.795h-154.212c-4.143 0-7.5 3.358-7.5 7.5s3.357 7.5 7.5 7.5h154.212v23.885h-131.35c-4.143 0-7.5 3.358-7.5 7.5s3.357 7.5 7.5 7.5h131.35v7.5c0 4.135-3.364 7.5-7.5 7.5h-295.799c-30.515 0-55.34-24.825-55.34-55.34s24.826-55.34 55.34-55.34h46.151z"/><path d="m271.942 172.438h27.558c7.995 0 14.5-6.505 14.5-14.5v-11.957h11.956c7.995 0 14.5-6.505 14.5-14.5v-27.557c0-7.995-6.505-14.5-14.5-14.5h-11.956v-11.955c0-7.995-6.505-14.5-14.5-14.5h-27.558c-7.995 0-14.5 6.505-14.5 14.5v11.956h-11.956c-7.995 0-14.5 6.505-14.5 14.5v27.557c0 7.995 6.505 14.5 14.5 14.5h11.956v11.957c0 7.995 6.505 14.499 14.5 14.499zm-25.956-41.456v-26.557h18.956c4.143 0 7.5-3.358 7.5-7.5v-18.956h26.558v18.956c0 4.142 3.357 7.5 7.5 7.5h18.956v26.557h-18.956c-4.143 0-7.5 3.358-7.5 7.5v18.957h-26.558v-18.957c0-4.142-3.357-7.5-7.5-7.5z"/><path d="m221.058 362.747v-106.747c0-4.142-3.358-7.5-7.5-7.5s-7.5 3.358-7.5 7.5v106.747c0 4.142 3.358 7.5 7.5 7.5s7.5-3.358 7.5-7.5z"/><path d="m404.305 337.438h-41.771c-4.143 0-7.5 3.358-7.5 7.5s3.357 7.5 7.5 7.5h41.771c4.143 0 7.5-3.358 7.5-7.5s-3.357-7.5-7.5-7.5z"/><path d="m404.305 311.152h-99.355c-4.143 0-7.5 3.358-7.5 7.5s3.357 7.5 7.5 7.5h99.354c4.143 0 7.5-3.358 7.5-7.5s-3.356-7.5-7.499-7.5z"/><path d="m362.534 287.003h41.771c4.143 0 7.5-3.358 7.5-7.5s-3.357-7.5-7.5-7.5h-41.771c-4.143 0-7.5 3.358-7.5 7.5s3.358 7.5 7.5 7.5z"/><path d="m362.534 261.851h41.771c4.143 0 7.5-3.358 7.5-7.5s-3.357-7.5-7.5-7.5h-41.771c-4.143 0-7.5 3.358-7.5 7.5s3.358 7.5 7.5 7.5z"/><path d="m285.348 279.764c1.407 1.407 3.314 2.197 5.304 2.197s3.896-.79 5.304-2.197l19.933-19.933c2.929-2.929 2.929-7.678 0-10.606-2.93-2.929-7.678-2.929-10.607 0l-14.629 14.63-4.24-4.241c-2.93-2.929-7.678-2.929-10.607 0s-2.929 7.678 0 10.606z"/></g></svg>